<svg xmlns="http://www.w3.org/2000/svg" width="512" height="512" viewBox="0 0 512 512" role="img" aria-labelledby="title desc">
  <title id="title">Inventory icon</title>
  <desc id="desc">An inventory button icon with stacked cards and Inventory label.</desc>
  <defs>
    <linearGradient id="bg" x1="78" y1="70" x2="434" y2="454" gradientUnits="userSpaceOnUse">
      <stop offset="0" stop-color="#5762A5"/>
      <stop offset="1" stop-color="#2B5C5D"/>
    </linearGradient>
    <filter id="shadow" x="-20%" y="-20%" width="140%" height="140%">
      <feDropShadow dx="0" dy="12" stdDeviation="12" flood-color="#162036" flood-opacity=".3"/>
    </filter>
  </defs>
  <rect width="512" height="512" rx="72" fill="url(#bg)"/>
  <circle cx="108" cy="104" r="56" fill="#7DD8C6" opacity=".15"/>
  <circle cx="414" cy="396" r="70" fill="#F4C95D" opacity=".12"/>
  <g filter="url(#shadow)">
    <rect x="169" y="122" width="174" height="214" rx="22" fill="#D6EEE9" transform="rotate(-9 256 229)"/>
    <rect x="155" y="141" width="174" height="214" rx="22" fill="#F4C95D" transform="rotate(-2 242 248)"/>
    <rect x="184" y="119" width="174" height="214" rx="22" fill="#F7FBF8" transform="rotate(7 271 226)"/>
    <path d="M235 179h76M224 224h98M218 267h77" stroke="#273D63" stroke-width="15" stroke-linecap="round" opacity=".28"/>
    <path d="M257 172 275 208l39 6-28 27 7 39-36-19-35 19 7-39-29-27 40-6 17-36Z" fill="#2F7D78"/>
  </g>
  <text x="256" y="449" text-anchor="middle" font-family="Inter, Segoe UI, Arial, sans-serif" font-size="44" font-weight="800" letter-spacing="0" fill="#FFFFFF">Inventory</text>
</svg>
